PathFileType	4	(X/Y/Z)	Patient4_TMGait_0pt3_01_right_24.trc.trc
DataRate	CameraRate	NumFrames	NumMarkers	Units	OrigDataRate	OrigDataStartFrame	OrigNumFrames
52.238805970149	52.238805970149	6	33	mm	52.238805970149	53	       141
Frame#	Time	Sacral			L.Shoulder			Chest			R.Shoulder			Neck			R.ASIS			L.ASIS			R.Thigh.Superior			R.Thigh.Lateral			R.Thigh.Inferior			R.Patella			L.Thigh.Superior			L.Thigh.Lateral			L.Thigh.Inferior			L.Patella			L.Shank.Superior			L.Shank.Lateral			L.Shank.Inferior			R.Shank.Superior			R.Shank.Lateral			R.Shank.Inferior			R.Heel			R.Midfoot.Superior			R.Midfoot.Lateral			R.Toe			L.Heel			L.Midfoot.Lateral			L.Midfoot.Superior			L.Toe			L.Elbow			L.Wrist			R.Elbow			R.Wrist			
		X1	Y1	Z1	X2	Y2	Z2	X3	Y3	Z3	X4	Y4	Z4	X5	Y5	Z5	X6	Y6	Z6	X7	Y7	Z7	X8	Y8	Z8	X9	Y9	Z9	X10	Y10	Z10	X11	Y11	Z11	X12	Y12	Z12	X13	Y13	Z13	X14	Y14	Z14	X15	Y15	Z15	X16	Y16	Z16	X17	Y17	Z17	X18	Y18	Z18	X19	Y19	Z19	X20	Y20	Z20	X21	Y21	Z21	X22	Y22	Z22	X23	Y23	Z23	X24	Y24	Z24	X25	Y25	Z25	X26	Y26	Z26	X27	Y27	Z27	X28	Y28	Z28	X29	Y29	Z29	X30	Y30	Z30	X31	Y31	Z31	X32	Y32	Z32	X33	Y33	Z33	

53	45.025428571429	751.142059569732	983.252617164059	588.588701018567	954.252682935670	1416.950390157259	429.061141182886	1035.601852265847	1345.024897329266	600.186778419502	932.928106846137	1417.272725146448	764.165047538934	922.764259842619	1477.358782986571	587.273764609526	975.907941211652	928.122550142014	723.519397542962	978.382471828815	944.243443538076	448.414250709152	1035.651071020771	733.421334523031	685.518654999317	959.446778660239	612.666072099468	731.186453971976	1047.488692118395	570.450907126694	655.051244721659	1052.680995865740	472.471459550839	657.420066287979	1053.564943707367	754.085430346758	467.107849849921	1004.379690767485	633.154560451014	380.517877264946	1104.537287411042	564.284079974844	442.548296542401	1111.869852740901	474.139197261717	427.174871958825	1039.497839957759	413.715039369109	413.574232573958	892.896453318626	384.827276676973	369.972487910340	877.030943917881	250.908316365835	409.261724097175	1003.909588457165	385.712030190357	652.163538953166	910.555470922240	292.861603136331	703.439989569100	934.702059586041	197.862040422640	633.300052373051	774.439905836721	46.843824888576	593.595650189603	949.212624156682	97.994325243670	630.338576844622	858.340893610646	38.477184370191	666.406002517673	1066.420718271618	40.427424008805	655.062576480989	685.932282696567	186.599730982559	453.731140426243	735.414181315189	154.906030607572	362.219457566652	842.063122728680	158.046208484363	375.556085755430	914.012148222125	50.884652857147	321.513169448413	959.084847478060	1064.490759380902	310.656270221978	1054.155768276268	821.873305448591	313.106898339310	896.076895925549	1070.589096016320	887.811151847575	1006.719637869189	842.678543380627	952.488891171983	
54	45.044571428571	748.982240638837	981.303513182435	591.814074268420	949.290961917851	1415.187063779307	429.744807485127	1033.163825249381	1343.573483873274	599.803274793720	932.804794340034	1415.656060238613	765.273739760503	920.292346401388	1475.846789558730	588.519212816364	975.251941000808	926.846853714841	724.324971106064	974.868855775068	942.968092120408	449.263179043292	1034.562925547272	732.064369299334	685.653386790270	959.023704270195	611.127320881773	731.815715992540	1046.370084812670	569.081779811260	654.835604037466	1051.330352179368	470.764740166799	657.063317981297	1052.907281915252	755.472950851786	467.533659762952	1005.619506512842	633.884251932460	381.054124159892	1107.500910463164	566.957127486828	442.529567126855	1116.868066559395	477.251051684241	427.015850270022	1046.221917228481	415.320794914331	413.222372168252	900.398152442784	382.133269519317	370.472144441658	889.394014626086	247.580098559706	408.826562629829	1001.607062411898	384.096937602591	651.957700830511	907.509919535271	292.008557307175	703.419677258001	930.218233249343	196.956042240223	633.046643737318	768.713512219687	46.767460076010	593.551943048018	943.490382674958	97.955058570021	630.329400454987	852.583875281903	38.464089632177	666.412345454898	1060.654410125161	40.398252241915	655.102435081531	701.206449304296	175.682131014387	454.351498291159	751.089878360869	147.446821657000	361.885296987660	857.506648539140	154.628941031374	374.478127135446	933.154597149998	51.490835697017	318.114977421524	939.594621670875	1061.839663069307	313.811286895751	1014.860898322176	812.088995633237	315.803120850823	908.213764583473	1067.993466186846	890.500873015101	1029.694900729462	845.763946940537	954.835131472321	
55	45.063714285714	746.872505338366	980.023801699166	594.850805340467	944.232808763382	1413.955302530804	430.193859440511	1030.823022830470	1342.648092509407	599.035013835387	933.004503941364	1414.652881721252	766.024773691045	917.910370060852	1474.853006271000	589.441403873996	974.557492205476	925.925679646694	724.827265066386	971.268665938573	942.225339978862	449.903807207661	1032.948890455825	730.900106228731	685.341088661668	957.941408524189	609.956547315443	732.148230771774	1044.337985852436	567.916509094496	654.198690040390	1048.954238571302	469.387187238149	656.302189382369	1051.704088024024	757.079598918184	467.937856393802	1006.205958317075	634.935856665999	381.528095558593	1109.375708675867	569.755428529200	442.726705611040	1120.766100211883	480.700421931740	427.070732230737	1052.325986639406	417.224760311168	412.895308403213	907.895953540705	378.714519280633	370.508094158430	902.635201882142	243.611042051165	407.956206658679	998.498897749396	382.821509974030	651.474334290635	903.983720868033	291.313118633801	703.292657585134	925.423780686514	196.218056516333	632.703799891637	762.962714564642	46.693997755433	593.548265960715	937.701939879084	97.892015954369	630.280200457286	846.816846672492	38.450212069580	666.444647560533	1054.873725783691	40.372202586021	655.123840759346	718.067300071916	163.131029378866	453.899408410348	768.672837534500	138.363952199370	360.810885161369	874.605856203845	150.215037307177	373.001656216853	954.539354865307	51.653082878368	315.008280259810	919.503250685976	1060.522877085210	316.552419154065	975.867853669903	805.678168672767	318.580396713200	920.496281892109	1066.423482422909	892.531317200204	1053.601991492192	850.806123796924	955.535825173998	
56	45.082857142857	744.811823817486	979.476671605705	597.723665983374	939.076895845674	1413.322190602227	430.415139897160	1028.588155270989	1342.291718041790	597.862180479191	933.575395310282	1414.315489134793	766.406481935192	915.629728884109	1474.427179928209	590.040914986676	973.824339478824	925.413403991320	725.023954282150	967.582555870143	942.068449885831	450.312017968463	1030.811644064172	729.975389862068	684.681044440109	956.141687198742	609.200444607094	732.245431888141	1041.391338149005	566.995686149390	653.264940111137	1045.548504837846	468.381089368820	655.271197692651	1049.962910896307	758.949832517313	468.372989114726	1006.182970707125	636.332211109069	381.970868067608	1110.207586952868	572.685819578692	443.183426614096	1123.595105851876	484.472748227095	427.390484447236	1057.784241357163	419.457243316828	412.662940528263	915.407336642208	374.810956362095	370.109546178532	916.572332285017	239.334216864801	406.748185842716	994.570399200409	381.928849105229	650.812351668233	899.929574379022	290.812066013971	703.111915604592	920.319547074386	195.681904754089	632.328025068614	757.189070312128	46.641727772630	593.587659101302	931.861428164429	97.808694734331	630.201611553722	841.042135594731	38.438383264130	666.501075430503	1049.080162592846	40.345752870749	655.129021757367	736.302810586516	149.596177885384	452.442705591231	787.939144464539	128.253022018954	359.076278094640	893.087164334259	145.233564895067	371.247719321247	977.733914651473	51.645471760396	312.352895802129	899.076805897579	1060.663171033460	318.869528647948	937.763367126276	802.498244458726	321.423427444507	932.875535519594	1065.964541446358	893.938711754145	1078.242008071089	857.988312454431	954.600472890124	
57	45.102000000000	742.802243856500	979.673345718195	600.448781932128	933.832695210635	1413.316576735915	430.417697661535	1026.457622795587	1342.509355296177	596.278080449888	934.531799629531	1414.649480320822	766.410733970389	913.453772593530	1474.580589565433	590.324737678958	973.050025443739	925.339279775694	724.920226000818	963.825470740757	942.510273344798	450.465603017078	1028.164429583702	729.313865083796	683.786726209682	953.576628076902	608.881401477050	732.176824242057	1037.539766878763	566.338697733691	652.166375988587	1041.119347329605	467.769009049164	654.105673542771	1047.711182373083	761.097631976477	468.846937663907	1005.580396547938	638.062155432690	382.390605651310	1110.066010838644	575.733891128982	443.873140212454	1125.406852699537	488.531615348899	427.974411377912	1062.573887827253	422.025147839064	412.572349555468	922.931123686707	370.667647656079	369.308518347013	930.971191011480	235.082837000237	405.322264092422	989.820425849969	381.440026847472	650.072665175299	895.308260537599	290.524936974912	702.927847737981	914.907716542736	195.367553734512	631.970899335943	751.392469708496	46.617461674588	593.669693616924	925.981377056863	97.707000962598	630.102490776357	835.260247488378	38.428319625621	666.579328679778	1043.274435092891	40.319987218776	655.120795824422	755.611454743117	135.739685622321	450.105366124195	808.579021504293	117.727409147293	356.812514972161	912.602308330602	140.128309109795	369.372800513926	1002.233275188448	51.774900853241	310.334595118696	878.600370085401	1062.301757284681	320.781384051222	901.059806654223	802.283281677894	324.313254198420	945.332469401520	1066.642880851091	894.759084958163	1103.376101093043	867.404615739291	952.086000400875	
58	45.121142857143	740.849476940008	980.573611293157	603.032263398838	928.524041064401	1413.923565905259	430.210429001080	1024.423013433908	1343.266800231945	594.290484490973	935.854409477565	1415.615963626420	766.032700749407	911.381115438649	1475.284860396791	590.301990316454	972.230462367975	925.700994034457	724.530709901819	960.023844805878	943.520201313673	450.351801569123	1025.028445768500	728.913752211055	682.765719119986	950.217453755604	608.995933177224	732.010273976119	1032.801831203320	565.942997377443	651.022232760298	1035.682054380831	467.551607794578	652.922143630619	1044.996271158776	763.501448011058	469.328093938430	1004.416201619798	640.078701318382	382.772550755815	1109.037425114421	578.858594334492	444.710178298780	1126.265683751928	492.814952454511	428.775457998940	1066.672893262221	424.905532524059	412.645364010600	930.438889231285	366.509160993675	368.141707684587	945.557778581316	231.152681609283	403.807043479702	984.261328391167	381.352512612168	649.343758120503	890.094945993868	290.451723467769	702.782501377966	909.192235858506	195.278654295780	631.672341163467	745.571392513302	46.615737367021	593.790671707592	920.070865192630	97.587164793351	629.988802851453	829.469532361938	38.416766465321	666.677173570242	1037.456550089971	40.299882646198	655.102032898068	775.620665833576	122.174438235277	447.055884870422	830.209071847998	107.357350155779	354.187626476446	932.746536599399	135.306631833201	367.549175190939	1027.483358329335	52.330177108684	309.138916254363	858.355338200003	1065.389347189106	322.332908267625	866.172226393259	804.665902745186	327.230717751962	957.870816725078	1068.432167451064	895.024061803561	1128.735911003051	879.056284418435	948.089823486933	
